<svg xmlns="http://www.w3.org/2000/svg" version="1.1" xmlns:xlink="http://www.w3.org/1999/xlink" xmlns:svgjs="http://svgjs.com/svgjs" width="1440" height="560" preserveAspectRatio="none" viewBox="0 0 1440 560"><g mask="url(&quot;#SvgjsMask1001&quot;)" fill="none"><path d="M566.04 581.77C682.08 547.72 642.38 220.2 886.61 219.53 1130.85 218.86 1360.57 407.93 1527.76 409.93" stroke="rgba(51,121,194,0.58)" stroke-width="2"></path><path d="M460.65 668.48C615.88 647.36 702.35 288.64 957.84 287.03 1213.32 285.42 1325.51 431.14 1455.02 432.63" stroke="rgba(51,121,194,0.58)" stroke-width="2"></path><path d="M671 622.48C771.96 611.76 732.63 401.55 1005.72 392.54 1278.81 383.53 1500.39 193.11 1675.16 190.94" stroke="rgba(51,121,194,0.58)" stroke-width="2"></path><path d="M597.96 660.77C764.09 628.78 839.95 208.99 1099.68 206.66 1359.41 204.33 1467.76 388.55 1601.4 391.46" stroke="rgba(51,121,194,0.58)" stroke-width="2"></path><path d="M549.4 565.63C670.47 532.48 605.25 209.55 889.28 196.04 1173.3 182.53 1395.8 62.28 1569.03 61.64" stroke="rgba(51,121,194,0.58)" stroke-width="2"></path></g><defs><mask id="SvgjsMask1001"><rect width="1440" height="560" fill="#ffffff"></rect></mask></defs></svg>